
#N canvas 90 30 1080 715 10;
#X obj -358 -225 adc~;
#X msg -337 -178 delayMode 0;
#X floatatom 18 -76 5 0 0 0 - - -;
#X obj 18 -138 route list;
#X obj 18 -48 vsl 15 128 0 0.5 0 0 empty empty empty 0 -9 0 10 -262144
-1 -1 1060 1;
#X floatatom 100 -75 5 0 0 0 - - -;
#X obj 100 -47 vsl 15 128 0 1500 0 0 empty empty empty 0 -9 0 10 -262144
-1 -1 988 1;
#X obj -357 -81 sigmund~;
#X obj -357 -50 moses 0;
#X obj -318 25 vsl 15 128 30 80 0 0 empty empty empty 0 -9 0 10 -262144
-1 -1 4308 1;
#X floatatom 68 -116 5 0 0 0 - - -;
#X obj 68 -88 vsl 15 128 0 3 0 0 empty empty empty 0 -9 0 10 -262144
-1 -1 108 1;
-1 -1 501 1;
#X floatatom -20 -115 5 0 0 0 - - -;
#X obj -20 -87 vsl 15 128 0 1500 0 0 empty empty empty 0 -9 0 10 -262144
-1 -1 1005 1;
#X obj -357 -81 sigmund~;
#X obj -357 -50 moses 0;
#X obj -318 25 vsl 15 128 30 80 0 0 empty empty empty 0 -9 0 10 -262144
-1 -1 4703 1;
#X floatatom 68 -116 5 0 0 0 - - -;
#X obj 68 -88 vsl 15 128 0 3 0 0 empty empty empty 0 -9 0 10 -262144
-1 -1 1238 1;
#X obj -215 -207 rms~;
#X obj -102 -144 route noisiness.mean f0.mean loudness.mean;
#X obj -358 -152 essentiaRT~ 50;
#X obj -215 -139 vsl 15 128 0 1 0 0 empty empty empty 0 -9 0 10 -262144
-1 -1 0 1;
-1 -1 1254 1;
#X obj -215 -174 average 50;
#X msg 155 58 send \$1;
-1 -1 4398 1;
#X floatatom 188 -76 5 0 0 0 - - -;
#X obj 188 -48 vsl 15 128 0 3 0 0 empty empty empty 0 -9 0 10 -262144
-1 -1 161 1;
#X obj -117 -189 rms~;
#X obj 18 -104 route noisiness.mean f0.mean loudness.mean;
#X obj -117 -121 vsl 15 128 0 1 0 0 empty empty empty 0 -9 0 10 -262144
-1 -1 87 1;
#X obj -117 -156 average 50;
#X text -356 29 pitch;
#X text -99 -115 loudness;
#X obj -318 -13 average 20;
#X text 37 -32 noisiness;
#X text 119 -32 essentiaf0;
#X text 207 -32 essentialoudness;
#X floatatom -257 102 5 0 0 0 - - -;
#X obj -158 82 outlet loudness;
#X obj -358 -225 inlet~ voice_in;
#X obj -266 -66 bng 15 250 50 0 empty empty empty 17 7 0 10 -262144
-1 -1;
#X obj 493 157 outlet onset;
#X obj 295 196 outlet onset rate;
#X obj -217 -127 s \$0-avg;
#X obj 18 -170 r \$0-avg;
#X obj -285 -115 s \$0-inst;
#X obj 348 12 r \$0-inst;
#X obj -308 213 outlet pitch midi continuous;
#X obj 345 37 bng 15 250 50 0 empty empty empty 17 7 0 10 -262144 -1
-1;
#N canvas 245 53 804 592 onsetDetector 0;
#X obj 354 100 route list;
#X obj 373 268 random;
#X obj 406 227 length;
#X obj 354 210 t l b l;
#X floatatom 361 143 5 0 0 0 - - -;
#X floatatom 414 247 5 0 0 0 - - -;
#X msg 360 165 reset;
#X text 447 186 stores elapsed time between detections;
#X obj 354 122 route i.strength;
#X floatatom 426 285 5 0 0 0 - - -;
#X obj 315 130 bng 20 250 50 0 empty empty empty 17 7 0 10 -262144
-1 -1;
#X text 461 115 Among the many features reported \, We take the onset
strenght and use that to trigger onsets.;
#X obj 354 187 list_iot 24000;
#X text 449 248 onsets in buffer;
#X text 463 285 on every trigger \, play a random onset in buffer (0
= oldest);
#X obj 71 149 bng 15 250 50 0 empty empty empty 17 7 0 10 -262144 -1
-1;
#X obj 73 202 f 0;
#X obj 131 201 + 1;
#X floatatom 73 237 5 0 0 0 - - -;
#X obj 150 78 bng 15 250 50 0 empty empty empty 17 7 0 10 -262144 -1
-1;
#X obj 67 92 metro 1000;
#X obj 64 53 tgl 15 0 empty empty empty 17 7 0 10 -262144 -1 -1 1 1
;
#X obj 35 118 t b b;
#X obj 149 143 t b 0 b;
#X obj 63 23 loadbang;
#X obj 71 352 outlet;
#X obj 303 351 outlet;
#X obj 187 256 f;
#X obj 187 351 outlet;
#X obj 355 31 inlet essentia instantaneous;
#X connect 0 0 8 0;
#X connect 1 0 9 0;
#X connect 2 0 5 0;
#X connect 2 0 1 1;
#X connect 3 1 1 0;
#X connect 3 2 2 0;
#X connect 6 0 12 0;
#X connect 8 0 4 0;
#X connect 8 0 12 0;
#X connect 8 0 10 0;
#X connect 10 0 16 0;
#X connect 10 0 26 0;
#X connect 12 0 3 0;
#X connect 15 0 16 0;
#X connect 16 0 17 0;
#X connect 16 0 18 0;
#X connect 16 0 27 1;
#X connect 17 0 16 1;
#X connect 18 0 25 0;
#X connect 19 0 23 0;
#X connect 20 0 19 0;
#X connect 21 0 20 0;
#X connect 23 0 16 0;
#X connect 23 1 16 1;
#X connect 23 2 27 0;
#X connect 24 0 21 0;
#X connect 27 0 28 0;
#X connect 29 0 0 0;
#X restore 484 -56 pd onsetDetector;
#X obj 577 -13 bng 15 250 50 0 empty empty empty 17 7 0 10 -262144
-1 -1;
#X floatatom 485 -15 5 0 0 0 - - -;
#X floatatom 529 2 5 0 0 0 - - -;
#X floatatom 292 140 5 0 0 0 - - -;
#X obj 290 109 temperature 1000;
#X obj 345 62 t b b;
#X obj -358 -152 essentiaRT~ 10;
#X connect 0 0 40 0;
#X connect 1 0 3 0;
#X connect 2 0 12 0;
#X connect 4 0 5 0;
#X connect 6 0 7 0;
#X connect 7 1 17 0;
#X connect 8 0 31 0;
#X connect 9 0 10 0;
#X connect 10 1 22 0;
#X connect 11 0 31 0;
#X connect 12 0 13 0;
#X connect 14 0 18 0;
#X connect 15 0 4 0;
#X connect 15 1 7 0;
#X connect 15 2 12 0;
#X connect 16 1 2 0;
#X connect 16 2 1 0;
#X connect 17 0 32 0;
#X connect 18 0 17 0;
#X connect 22 0 11 0;
#X connect 22 0 29 0;
#X connect 26 0 28 0;
#X connect 26 1 30 0;
#X connect 26 2 27 0;
#X connect 30 0 33 0;
#X connect 34 0 9 0;
#X connect 34 0 14 0;
#X connect 34 0 16 0;
#X floatatom 278 -168 5 0 0 0 - - -;
#X connect 0 0 10 0;
#X connect 0 0 15 0;
#X connect 0 0 17 0;
#X connect 0 1 17 0;
#X connect 1 0 17 0;
#X connect 4 0 6 0;
#X connect 5 0 7 0;
#X connect 6 0 16 0;
#X connect 8 0 9 0;
#X connect 10 0 11 0;
#X connect 11 1 23 0;
#X connect 13 0 14 0;
#X connect 15 0 19 0;
#X connect 16 0 5 0;
#X connect 16 1 8 0;
#X connect 16 2 13 0;
#X connect 17 1 3 0;
#X connect 17 2 2 0;
#X connect 19 0 18 0;
#X connect 23 0 12 0;
#X connect 27 0 29 0;
#X connect 27 1 30 0;
#X connect 27 2 28 0;
#X connect 11 0 14 0;
#X connect 12 0 1 0;
#X connect 12 1 4 0;
#X connect 12 2 9 0;
#X connect 13 0 22 0;
#X connect 14 0 13 0;
#X connect 17 0 8 0;
#X connect 17 0 21 0;
#X connect 23 0 6 0;
#X connect 23 0 11 0;
#X connect 23 0 40 0;
#X connect 28 0 2 0;
#X connect 30 0 32 0;
#X connect 32 0 39 0;
#X connect 33 0 35 0;
#X connect 33 1 36 0;
#X connect 33 2 34 0;
#X connect 37 0 26 0;
#X connect 38 0 37 0;
#X connect 39 0 38 0;
#X connect 39 1 25 0;
#X connect 40 1 24 0;
#X connect 40 1 29 0;
#X connect 40 2 27 0;
>>>>>>> this is bad
