#N canvas 0 22 1062 668 10;
#X obj 266 0 dsp;
#X obj 259 -37 tgl 15 0 empty empty empty 17 7 0 10 -262144 -1 -1 1
1;
#N canvas 284 118 543 565 voice_detector 0;
#X obj 181 48 dbtorms;
#X obj 258 124 hsl 128 15 0 100 0 0 empty empty empty -2 -8 0 10 -262144
-1 -1 869 1;
#X obj 176 93 autoscale 0 1;
#X msg 305 57 reset;
#X obj 174 131 * 100;
#X floatatom 183 156 5 0 0 0 - - -;
#X obj 188 211 change;
#X obj 191 240 tgl 15 0 empty empty empty 17 7 0 10 -262144 -1 -1 1
1;
#X obj 178 16 env~ 10000;
#X obj 189 187 > 5;
#X obj 190 267 sel 1 0;
#X obj 200 456 line~;
#X obj 180 -9 inlet~;
#X msg 360 328 stop;
#X obj 232 298 bng 15 250 50 0 empty empty empty 17 7 0 10 -262144
-1 -1;
#X obj 412 328 bng 15 250 50 0 empty empty empty 17 7 0 10 -262144
-1 -1;
#X obj 303 486 unsig~ 20;
#X obj 314 516 hsl 128 15 0 1 0 0 empty empty empty -2 -8 0 10 -262144
-1 -1 6350 1;
#X obj 191 503 outlet~ GAIN;
#X obj 197 482 *~;
#X obj 367 449 sel 1;
#X msg 430 431 1;
#X msg 499 430 0;
#X obj 478 498 outlet;
#X obj 472 464 tgl 15 0 empty empty empty 17 7 0 10 -262144 -1 -1 1
1;
#X msg 203 423 0.5 200;
#X msg 271 424 1 2000;
#X obj 360 353 delay 1000;
#X connect 0 0 2 0;
#X connect 2 0 4 0;
#X connect 3 0 2 0;
#X connect 4 0 5 0;
#X connect 4 0 1 0;
#X connect 5 0 9 0;
#X connect 6 0 7 0;
#X connect 7 0 10 0;
#X connect 8 0 0 0;
#X connect 9 0 6 0;
#X connect 10 0 25 0;
#X connect 10 0 14 0;
#X connect 10 1 15 0;
#X connect 11 0 19 0;
#X connect 11 0 19 1;
#X connect 11 0 16 0;
#X connect 12 0 8 0;
#X connect 13 0 27 0;
#X connect 14 0 13 0;
#X connect 14 0 21 0;
#X connect 15 0 27 0;
#X connect 16 0 17 0;
#X connect 19 0 18 0;
#X connect 21 0 24 0;
#X connect 22 0 24 0;
#X connect 24 0 23 0;
#X connect 25 0 11 0;
#X connect 26 0 11 0;
#X connect 27 0 26 0;
#X connect 27 0 22 0;
#X restore 115 113 pd voice_detector;
#X obj 42 -25 adc~;
#X obj 234 345 *~;
#X obj 273 345 *~;
#X obj 34 103 s~ vox;
#X obj 270 265 catch~ SynthL;
#X obj 359 266 catch~ SynthR;
#X obj 274 303 vols~;
#X obj 460 268 hsl 128 15 0 127 0 0 empty empty empty -2 -8 0 10 -262144
-1 -1 8000 1;
#X floatatom 457 289 5 0 0 0 - - -;
#X obj 75 9 throw~ MainLR;
#X obj 357 479 catch~ MainR;
#X obj 293 533 dac~;
#X obj 186 480 catch~ MainLR;
#X obj 758 232 vox 1;
#X obj 757 124 unpack f f;
#X obj 760 182 pack f f f;
#X obj 759 205 send g-vox;
#X floatatom 693 190 5 0 0 0 - - -;
#X obj 629 136 bng 15 250 50 0 empty empty empty 17 7 0 10 -262144
-1 -1;
#X obj 455 217 loadbang;
#X msg 456 243 80;
#X obj 276 479 catch~ MainL;
#X obj 219 435 throw~ MainL;
#X obj 341 436 throw~ MainR;
#X obj 801 232 vox 2;
#X obj 843 232 vox 3;
#X obj 886 232 vox 4;
#X obj 927 232 vox 5;
#X obj 761 156 poly 5 1;
#X obj 752 -16 essentiaAnalysis;
#X floatatom 750 8 5 0 0 0 - - -;
#X floatatom 800 14 5 0 0 0 - - -;
#X floatatom 852 11 5 0 0 0 - - -;
#X obj 752 -43 r~ vox;
#X obj 672 36 s pitch;
#X obj 895 113 s loudness;
#N canvas 466 188 580 516 voice_reverb 0;
#X obj 68 -2837 tgl 15 0 empty empty empty 17 7 0 10 -262144 -1 -1
0 1;
#X obj 135 -2785 r~ vox;
#X obj 159 -2718 freeverb~;
#X msg 68 -2813 freeze \$1;
#X obj 112 -2667 throw~ MainR;
#X obj 193 -2667 throw~ MainL;
#X msg 177 -2756 roomsize \$1;
#X obj 278 -2959 r loudness;
#X obj 277 -2905 min 1;
#X obj 66 -2867 inlet freeze;
#X obj 276 -2846 line;
#X msg 278 -2750 wet \$1;
#X obj 178 -2892 loadbang;
#X obj 421 -2778 hsl 128 15 0 1 0 0 empty empty empty -2 -8 0 10 -262144
-1 -1 6727 1;
#X msg 277 -2875 \$1 500;
#X msg 178 -2860 0.7;
#X obj 463 -2937 r pitch;
#X obj 456 -2872 sig~;
#X obj 462 -2911 mtof;
#X obj 277 -2928 * 4;
#X floatatom 512 -2896 5 0 0 0 - - -;
#X msg 375 -2734 15;
#X obj 340 -2694 delay 500;
#X obj 369 -2834 vd~ \$0-delay_buffer;
#X obj 375 -2882 sig~;
#X msg 373 -2944 300;
#X obj 293 -2574 delwrite~ \$0-delay_buffer 1000;
#X obj 418 -2731 sig~;
#X obj 292 -2606 *~;
#X obj 248 -2605 r~ vox;
#X floatatom 497 -2711 5 0 0 0 - - -;
#X obj 418 -2754 / 1;
#X connect 0 0 3 0;
#X connect 1 0 2 0;
#X connect 2 0 4 0;
#X connect 2 1 5 0;
#X connect 3 0 2 0;
#X connect 6 0 2 0;
#X connect 7 0 19 0;
#X connect 8 0 14 0;
#X connect 9 0 0 0;
#X connect 10 0 11 0;
#X connect 10 0 13 0;
#X connect 11 0 2 0;
#X connect 12 0 15 0;
#X connect 12 0 25 0;
#X connect 13 0 31 0;
#X connect 14 0 10 0;
#X connect 15 0 6 0;
#X connect 16 0 18 0;
#X connect 18 0 17 0;
#X connect 18 0 20 0;
#X connect 19 0 8 0;
#X connect 23 0 28 0;
#X connect 24 0 23 0;
#X connect 25 0 24 0;
#X connect 27 0 28 1;
#X connect 28 0 26 0;
#X connect 28 0 5 0;
#X connect 28 0 4 0;
#X connect 29 0 26 0;
#X connect 31 0 27 0;
#X connect 31 0 30 0;
#X restore 259 113 pd voice_reverb;
#X obj 228 158 tgl 15 0 empty empty empty 17 7 0 10 -262144 -1 -1 1
1;
#X obj 624 69 pack f f;
#X obj 606 7 mtof;
#X msg 923 39 reset;
#X obj 898 68 autoscale 0 1;
#X obj 912 4 bng 15 250 50 0 empty empty empty 17 7 0 10 -262144 -1
-1;
#X obj 618 42 f;
#X connect 1 0 0 0;
#X connect 2 0 4 0;
#X connect 2 0 5 0;
#X connect 2 1 40 0;
#X connect 3 0 2 0;
#X connect 3 0 6 0;
#X connect 3 0 12 0;
#X connect 4 0 25 0;
#X connect 5 0 26 0;
#X connect 7 0 9 0;
#X connect 8 0 9 1;
#X connect 9 0 4 1;
#X connect 9 1 5 1;
#X connect 10 0 9 2;
#X connect 10 0 11 0;
#X connect 13 0 14 1;
#X connect 15 0 14 0;
#X connect 15 0 14 1;
#X connect 17 0 31 0;
#X connect 17 1 31 1;
#X connect 18 0 19 0;
#X connect 22 0 23 0;
#X connect 23 0 10 0;
#X connect 24 0 14 0;
#X connect 31 0 18 0;
#X connect 31 0 20 0;
#X connect 31 0 21 0;
#X connect 31 1 18 1;
#X connect 31 2 18 2;
#X connect 32 0 33 0;
#X connect 32 1 34 0;
#X connect 32 2 35 0;
#X connect 32 3 45 0;
#X connect 33 0 37 0;
#X connect 33 0 42 0;
#X connect 34 0 44 0;
#X connect 36 0 32 0;
#X connect 41 0 17 0;
#X connect 42 0 46 1;
#X connect 43 0 44 0;
#X connect 44 0 38 0;
#X connect 44 0 41 1;
#X connect 45 0 46 0;
#X connect 46 0 41 0;
