#N canvas 0 22 1062 668 10;
#X obj 266 0 dsp;
#X obj 259 -37 tgl 15 0 empty empty empty 17 7 0 10 -262144 -1 -1 0
1;
#N canvas 284 118 543 565 voice_detector 0;
#X obj 181 48 dbtorms;
#X obj 258 124 hsl 128 15 0 100 0 0 empty empty empty -2 -8 0 10 -262144
-1 -1 493 1;
#X obj 176 93 autoscale 0 1;
#X msg 305 57 reset;
#X obj 174 131 * 100;
#X floatatom 183 156 5 0 0 0 - - -;
#X obj 188 211 change;
#X obj 191 240 tgl 15 0 empty empty empty 17 7 0 10 -262144 -1 -1 0
1;
#X obj 178 16 env~ 10000;
#X obj 189 187 > 5;
#X obj 190 267 sel 1 0;
#X obj 200 456 line~;
#X obj 180 -9 inlet~;
#X msg 360 328 stop;
#X obj 232 298 bng 15 250 50 0 empty empty empty 17 7 0 10 -262144
-1 -1;
#X obj 412 328 bng 15 250 50 0 empty empty empty 17 7 0 10 -262144
-1 -1;
#X obj 303 486 unsig~ 20;
#X obj 314 516 hsl 128 15 0 1 0 0 empty empty empty -2 -8 0 10 -262144
-1 -1 6350 1;
#X obj 191 503 outlet~ GAIN;
#X obj 197 482 *~;
#X obj 367 449 sel 1;
#X msg 430 431 1;
#X msg 499 430 0;
#X obj 478 498 outlet;
#X obj 472 464 tgl 15 0 empty empty empty 17 7 0 10 -262144 -1 -1 1
1;
#X msg 203 423 0.5 200;
#X msg 271 424 1 2000;
#X obj 360 353 delay 1000;
#X connect 0 0 2 0;
#X connect 2 0 4 0;
#X connect 3 0 2 0;
#X connect 4 0 5 0;
#X connect 4 0 1 0;
#X connect 5 0 9 0;
#X connect 6 0 7 0;
#X connect 7 0 10 0;
#X connect 8 0 0 0;
#X connect 9 0 6 0;
#X connect 10 0 25 0;
#X connect 10 0 14 0;
#X connect 10 1 15 0;
#X connect 11 0 19 0;
#X connect 11 0 19 1;
#X connect 11 0 16 0;
#X connect 12 0 8 0;
#X connect 13 0 27 0;
#X connect 14 0 13 0;
#X connect 14 0 21 0;
#X connect 15 0 27 0;
#X connect 16 0 17 0;
#X connect 19 0 18 0;
#X connect 21 0 24 0;
#X connect 22 0 24 0;
#X connect 24 0 23 0;
#X connect 25 0 11 0;
#X connect 26 0 11 0;
#X connect 27 0 26 0;
#X connect 27 0 22 0;
#X restore 115 113 pd voice_detector;
#X obj 42 -25 adc~;
#X obj 234 345 *~;
#X obj 273 345 *~;
#X obj 465 83 osc~ 1;
#X obj 309 133 tgl 15 0 empty empty empty 17 7 0 10 -262144 -1 -1 1
1;
#X obj 34 103 s~ vox;
#X obj 423 133 r~ vox;
#X obj 427 230 freeverb~;
#X msg 402 94;
#X msg 309 157 freeze \$1;
#X obj 680 297 catch~ SynthL;
#X obj 774 298 catch~ SynthR;
#X obj 714 350 vols~;
#X obj 803 337 hsl 128 15 0 127 0 0 empty empty empty -2 -8 0 10 -262144
-1 -1 8000 1;
#X floatatom 798 357 5 0 0 0 - - -;
#X obj 75 9 throw~ MainLR;
#X obj 357 479 catch~ MainR;
#X obj 293 533 dac~;
#X obj 186 480 catch~ MainLR;
#X obj 380 281 throw~ MainR;
#X obj 752 186 vox 1;
#X obj 768 0 bng 15 250 50 0 empty empty empty 17 7 0 10 -262144 -1
-1;
#X obj 751 78 unpack f f;
#X obj 754 136 pack f f f;
#X obj 753 159 send g-vox;
#X floatatom 705 133 5 0 0 0 - - -;
#X obj 629 136 bng 15 250 50 0 empty empty empty 17 7 0 10 -262144
-1 -1;
#X obj 746 -49 tgl 15 0 empty empty empty 17 7 0 10 -262144 -1 -1 0
1;
#N canvas 925 132 450 300 Onsets-Simulator 0;
#X obj 141 7 metro 500;
#X obj 93 29 t b b;
#X obj 91 57 bng 15 50 50 0 empty empty empty 17 7 0 10 -262144 -1
-1;
#X obj 141 41 random 500;
#X obj 221 66 + 200;
#X floatatom 228 19 5 0 0 0 - - -;
#X obj 85 132 mtof;
#X obj 85 154 t f b;
#X obj 110 179 random 100;
#X obj 108 202 / 100;
#X obj 82 224 pack f f;
#X obj 119 -17 inlet ON OFF;
#X obj 81 247 outlet frequency loudness;
#X obj 88 82 random 24;
#X obj 86 106 + 40;
#X connect 0 0 1 0;
#X connect 1 0 2 0;
#X connect 1 1 3 0;
#X connect 2 0 13 0;
#X connect 3 0 4 0;
#X connect 4 0 5 0;
#X connect 5 0 0 1;
#X connect 6 0 7 0;
#X connect 7 0 10 0;
#X connect 7 1 8 0;
#X connect 8 0 9 0;
#X connect 9 0 10 1;
#X connect 10 0 12 0;
#X connect 11 0 0 0;
#X connect 13 0 14 0;
#X connect 14 0 6 0;
#X restore 746 -22 pd Onsets-Simulator;
#X obj 750 46 t a;
#X obj 888 285 loadbang;
#X obj 461 281 throw~ MainL;
#X msg 889 311 80;
#X obj 276 479 catch~ MainL;
#X obj 219 435 throw~ MainL;
#X obj 341 436 throw~ MainR;
#X obj 795 186 vox 2;
#X obj 837 186 vox 3;
#X obj 880 186 vox 4;
#X obj 921 186 vox 5;
#X obj 755 110 poly 5 1;
#X connect 1 0 0 0;
#X connect 2 0 4 0;
#X connect 2 0 5 0;
#X connect 2 1 7 0;
#X connect 3 0 2 0;
#X connect 3 0 8 0;
#X connect 3 0 18 0;
#X connect 4 0 37 0;
#X connect 5 0 38 0;
#X connect 7 0 12 0;
#X connect 9 0 10 0;
#X connect 10 0 22 0;
#X connect 10 1 34 0;
#X connect 12 0 10 0;
#X connect 13 0 15 0;
#X connect 14 0 15 1;
#X connect 15 0 4 1;
#X connect 15 1 5 1;
#X connect 16 0 15 2;
#X connect 16 0 17 0;
#X connect 19 0 20 1;
#X connect 21 0 20 0;
#X connect 21 0 20 1;
#X connect 25 0 43 0;
#X connect 25 1 43 1;
#X connect 26 0 27 0;
#X connect 30 0 31 0;
#X connect 31 0 24 0;
#X connect 31 0 32 0;
#X connect 32 0 25 0;
#X connect 33 0 35 0;
#X connect 35 0 16 0;
#X connect 36 0 20 0;
#X connect 43 0 26 0;
#X connect 43 0 28 0;
#X connect 43 0 29 0;
#X connect 43 1 26 1;
#X connect 43 2 26 2;
