#N canvas 512 190 757 504 10;
#X obj 17 -158 mp3play~;
#X obj 17 -106 dac~;
#X obj 16 -340 unpackOSC;
#X obj 144 -352 loadbang;
#X msg 208 -335 \; pd dsp 1;
#X obj 16 -365 udpreceive 7001;
#X obj 16 -317 routeOSC /audio;
#X obj 158 -202 print;
#X obj 17 -275 tosymbol;
#X msg 17 -198 stop \, open \$1 \, start;
#X connect 0 0 1 0;
#X connect 0 1 1 1;
#X connect 2 0 6 0;
#X connect 3 0 4 0;
#X connect 5 0 2 0;
#X connect 6 0 8 0;
#X connect 6 0 7 0;
#X connect 8 0 9 0;
#X connect 9 0 0 0;
