#N canvas 490 186 757 504 10;
#X declare -lib mrpeach;
#X obj 144 -352 loadbang;
#X msg 208 -335 \; pd dsp 1;
#X obj 158 -202 print;
#X obj 17 -275 tosymbol;
#X obj 327 -326 import mrpeach;
#X obj 16 -340 unpackOSC;
#X obj 16 -317 routeOSC /audio;
#X obj 17 -106 outlet~;
#X obj 72 -105 outlet~;
#X obj 16 -365 udpreceive 7001;
#X obj 17 -158 mp3play~;
#X msg 17 -198 stop \, open \$1 \, start;
#X connect 0 0 1 0;
#X connect 3 0 11 0;
#X connect 5 0 6 0;
#X connect 6 0 3 0;
#X connect 6 0 2 0;
#X connect 9 0 5 0;
#X connect 10 0 7 0;
#X connect 10 1 8 0;
#X connect 11 0 10 0;
