#N canvas 383 143 757 504 10;
#X obj 16 -174 mp3play~;
#X msg 28 -229 start;
#X msg 43 -205 stop;
#X obj 16 -122 dac~;
#X obj 16 -365 udpreceive 6009;
#X obj 16 -317 routeOSC audio/;
#X msg 16 -291 open \$1;
#X obj 170 -99 addslash;
#X obj 170 32 udpsend;
#X obj 170 -34 packOSC;
#X floatatom 170 62 1 0 0 0 - - -;
#X msg 275 0 disconnect;
#X msg 274 -24 connect localhost 6009;
#X obj 170 -71 prepend send;
#X obj 16 -340 unpackOSC;
#X obj 34 -260 t b s;
#X obj 143 -344 loadbang;
#X obj 143 -265 s pd;
#X msg 208 -335 \; pd dsp 1;
#X obj 283 -247 r pd;
#X obj 284 -218 print settings;
#X msg 143 -299 audio-dialog 0 0 0 0 2 0 0 0 0 0 0 0 2 0 0 0 24000
25 -1 64;
#X msg 170 -127 audio/ houses.mp3;
#X connect 0 0 3 0;
#X connect 0 1 3 1;
#X connect 1 0 0 0;
#X connect 2 0 0 0;
#X connect 4 0 14 0;
#X connect 5 0 6 0;
#X connect 6 0 0 0;
#X connect 6 0 15 0;
#X connect 7 0 13 0;
#X connect 8 0 10 0;
#X connect 9 0 8 0;
#X connect 11 0 8 0;
#X connect 12 0 8 0;
#X connect 13 0 9 0;
#X connect 14 0 5 0;
#X connect 15 0 1 0;
#X connect 16 0 12 0;
#X connect 16 0 18 0;
#X connect 16 0 21 0;
#X connect 19 0 20 0;
#X connect 21 0 17 0;
#X connect 22 0 7 0;
