#N canvas 0 22 1207 674 10;
#X obj 266 0 dsp;
#X obj 259 -37 tgl 15 0 empty empty empty 17 7 0 10 -262144 -1 -1 1
1;
#N canvas 284 118 543 565 voice_detector 0;
#X obj 181 48 dbtorms;
#X obj 258 124 hsl 128 15 0 100 0 0 empty empty empty -2 -8 0 10 -262144
-1 -1 86 1;
#X obj 176 93 autoscale 0 1;
#X msg 305 57 reset;
#X obj 174 131 * 100;
#X floatatom 183 156 5 0 0 0 - - -;
#X obj 188 211 change;
#X obj 191 240 tgl 15 0 empty empty empty 17 7 0 10 -262144 -1 -1 0
1;
#X obj 178 16 env~ 10000;
#X obj 189 187 > 5;
#X obj 190 267 sel 1 0;
#X obj 200 456 line~;
#X obj 180 -9 inlet~;
#X msg 360 328 stop;
#X obj 232 298 bng 15 250 50 0 empty empty empty 17 7 0 10 -262144
-1 -1;
#X obj 412 328 bng 15 250 50 0 empty empty empty 17 7 0 10 -262144
-1 -1;
#X obj 303 486 unsig~ 20;
#X obj 314 516 hsl 128 15 0 1 0 0 empty empty empty -2 -8 0 10 -262144
-1 -1 12700 1;
#X obj 191 503 outlet~ GAIN;
#X obj 197 482 *~;
#X obj 367 449 sel 1;
#X msg 430 431 1;
#X msg 499 430 0;
#X obj 478 498 outlet;
#X obj 472 464 tgl 15 0 empty empty empty 17 7 0 10 -262144 -1 -1 0
1;
#X msg 203 423 0.5 200;
#X obj 360 353 delay 500;
#X msg 271 424 1 1000;
#X connect 0 0 2 0;
#X connect 2 0 4 0;
#X connect 3 0 2 0;
#X connect 4 0 5 0;
#X connect 4 0 1 0;
#X connect 5 0 9 0;
#X connect 6 0 7 0;
#X connect 7 0 10 0;
#X connect 8 0 0 0;
#X connect 9 0 6 0;
#X connect 10 0 25 0;
#X connect 10 0 14 0;
#X connect 10 1 15 0;
#X connect 11 0 19 0;
#X connect 11 0 19 1;
#X connect 11 0 16 0;
#X connect 12 0 8 0;
#X connect 13 0 26 0;
#X connect 14 0 13 0;
#X connect 14 0 21 0;
#X connect 15 0 26 0;
#X connect 16 0 17 0;
#X connect 19 0 18 0;
#X connect 21 0 24 0;
#X connect 22 0 24 0;
#X connect 24 0 23 0;
#X connect 25 0 11 0;
#X connect 26 0 27 0;
#X connect 26 0 22 0;
#X connect 27 0 11 0;
#X restore 115 113 pd voice_detector;
#X obj 42 -25 adc~;
#X obj 234 345 *~;
#X obj 273 345 *~;
#X obj 34 103 s~ vox;
#X obj 270 265 catch~ SynthL;
#X obj 359 266 catch~ SynthR;
#X obj 274 303 vols~;
#X obj 485 268 hsl 128 15 0 127 0 0 empty empty empty -2 -8 0 10 -262144
-1 -1 9000 1;
#X floatatom 457 289 5 0 0 0 - - -;
#X obj 75 9 throw~ MainLR;
#X obj 357 479 catch~ MainR;
#X obj 293 533 dac~;
#X obj 186 480 catch~ MainLR;
#X obj 900 365 vox 1;
#X obj 899 257 unpack f f;
#X obj 902 315 pack f f f;
#X obj 901 338 send g-vox;
#X floatatom 835 323 5 0 0 0 - - -;
#X obj 771 269 bng 15 250 50 0 empty empty empty 17 7 0 10 -262144
-1 -1;
#X obj 455 217 loadbang;
#X obj 276 479 catch~ MainL;
#X obj 219 435 throw~ MainL;
#X obj 341 436 throw~ MainR;
#X obj 903 289 poly 5 1;
#X obj 752 -16 essentiaAnalysis;
#X floatatom 750 8 5 0 0 0 - - -;
#X floatatom 800 14 5 0 0 0 - - -;
#X floatatom 852 11 5 0 0 0 - - -;
#X obj 752 -43 r~ vox;
#X obj 1037 246 s loudness;
#N canvas 466 188 580 516 voice_reverb 0;
#X obj 68 -2837 tgl 15 0 empty empty empty 17 7 0 10 -262144 -1 -1
0 1;
#X obj 135 -2785 r~ vox;
#X obj 159 -2718 freeverb~;
#X msg 68 -2813 freeze \$1;
#X obj 112 -2667 throw~ MainR;
#X obj 193 -2667 throw~ MainL;
#X msg 177 -2756 roomsize \$1;
#X obj 278 -2959 r loudness;
#X obj 277 -2905 min 1;
#X obj 66 -2867 inlet freeze;
#X obj 276 -2846 line;
#X msg 278 -2750 wet \$1;
#X obj 178 -2892 loadbang;
#X obj 421 -2778 hsl 128 15 0 1 0 0 empty empty empty -2 -8 0 10 -262144
-1 -1 608 1;
#X msg 277 -2875 \$1 500;
#X obj 463 -2937 r pitch;
#X obj 456 -2872 sig~;
#X obj 462 -2911 mtof;
#X obj 277 -2928 * 4;
#X floatatom 512 -2896 5 0 0 0 - - -;
#X msg 375 -2734 15;
#X obj 340 -2694 delay 500;
#X obj 369 -2834 vd~ \$0-delay_buffer;
#X obj 375 -2882 sig~;
#X msg 373 -2944 300;
#X obj 293 -2574 delwrite~ \$0-delay_buffer 1000;
#X obj 418 -2731 sig~;
#X obj 292 -2606 *~;
#X obj 248 -2605 r~ vox;
#X floatatom 497 -2711 5 0 0 0 - - -;
#X obj 418 -2754 / 1;
#X msg 178 -2860 0.55;
#X connect 0 0 3 0;
#X connect 1 0 2 0;
#X connect 2 0 4 0;
#X connect 2 1 5 0;
#X connect 3 0 2 0;
#X connect 6 0 2 0;
#X connect 7 0 18 0;
#X connect 8 0 14 0;
#X connect 9 0 0 0;
#X connect 10 0 11 0;
#X connect 10 0 13 0;
#X connect 11 0 2 0;
#X connect 12 0 31 0;
#X connect 12 0 24 0;
#X connect 13 0 30 0;
#X connect 14 0 10 0;
#X connect 15 0 17 0;
#X connect 17 0 16 0;
#X connect 17 0 19 0;
#X connect 18 0 8 0;
#X connect 22 0 27 0;
#X connect 23 0 22 0;
#X connect 24 0 23 0;
#X connect 26 0 27 1;
#X connect 27 0 25 0;
#X connect 28 0 25 0;
#X connect 30 0 26 0;
#X connect 30 0 29 0;
#X connect 31 0 6 0;
#X restore 259 113 pd voice_reverb;
#X obj 228 158 tgl 15 0 empty empty empty 17 7 0 10 -262144 -1 -1 0
1;
#X obj 881 209 pack f f;
#X obj 755 154 mtof;
#X msg 1049 108 reset;
#X obj 927 58 autoscale 0 1;
#X obj 912 4 bng 15 250 50 0 empty empty empty 17 7 0 10 -262144 -1
-1;
#X obj 783 186 f;
#X obj 760 108 tonalize;
#X floatatom 695 140 5 0 0 0 - - -;
#X obj 754 67 +;
#X obj 870 164 i;
#X floatatom 810 65 5 0 0 0 - - -;
#X obj 892 106 * 24;
#X msg 456 243 90;
#X obj 752 39 + 12;
#X obj 756 133 change;
#X obj 943 365 vox 2;
#X obj 985 365 vox 3;
#X obj 1028 365 vox 4;
#X obj 1069 365 vox 5;
#X obj 615 28 autoscale 24 64;
#X connect 1 0 0 0;
#X connect 2 0 4 0;
#X connect 2 0 5 0;
#X connect 2 1 34 0;
#X connect 3 0 2 0;
#X connect 3 0 6 0;
#X connect 3 0 12 0;
#X connect 4 0 24 0;
#X connect 5 0 25 0;
#X connect 7 0 9 0;
#X connect 8 0 9 1;
#X connect 9 0 4 1;
#X connect 9 1 5 1;
#X connect 10 0 9 2;
#X connect 10 0 11 0;
#X connect 13 0 14 1;
#X connect 15 0 14 0;
#X connect 15 0 14 1;
#X connect 17 0 26 0;
#X connect 17 1 26 1;
#X connect 18 0 19 0;
#X connect 22 0 47 0;
#X connect 23 0 14 0;
#X connect 26 0 18 0;
#X connect 26 0 20 0;
#X connect 26 0 21 0;
#X connect 26 1 18 1;
#X connect 26 2 18 2;
#X connect 27 0 28 0;
#X connect 27 1 29 0;
#X connect 27 2 30 0;
#X connect 27 3 39 0;
#X connect 28 0 54 0;
#X connect 29 0 38 0;
#X connect 31 0 27 0;
#X connect 35 0 17 0;
#X connect 36 0 40 1;
#X connect 37 0 38 0;
#X connect 38 0 32 0;
#X connect 38 0 35 1;
#X connect 38 0 46 0;
#X connect 39 0 40 0;
#X connect 40 0 35 0;
#X connect 41 0 49 0;
#X connect 43 0 41 0;
#X connect 44 0 45 0;
#X connect 45 0 43 1;
#X connect 46 0 44 0;
#X connect 47 0 10 0;
#X connect 48 0 43 0;
#X connect 49 0 42 0;
#X connect 49 0 36 0;
#X connect 54 0 48 0;
