#N canvas 34 62 1207 674 10;
#X declare -lib mrpeach;
#X obj 266 0 dsp;
#X obj 259 -37 tgl 31 0 empty empty empty 17 7 0 10 -257985 -1 -1 0
1;
#N canvas 284 118 543 565 voice_detector 0;
#X obj 181 48 dbtorms;
#X obj 258 124 hsl 128 15 0 100 0 0 empty empty empty -2 -8 0 10 -262144
-1 -1 0 1;
#X obj 176 93 autoscale 0 1;
#X msg 305 57 reset;
#X obj 174 131 * 100;
#X floatatom 183 156 5 0 0 0 - - -;
#X obj 188 211 change;
#X obj 191 240 tgl 15 0 empty empty empty 17 7 0 10 -262144 -1 -1 0
1;
#X obj 178 16 env~ 10000;
#X obj 189 187 > 5;
#X obj 190 267 sel 1 0;
#X obj 200 456 line~;
#X obj 180 -9 inlet~;
#X msg 360 328 stop;
#X obj 232 298 bng 15 250 50 0 empty empty empty 17 7 0 10 -262144
-1 -1;
#X obj 412 328 bng 15 250 50 0 empty empty empty 17 7 0 10 -262144
-1 -1;
#X obj 303 486 unsig~ 20;
#X obj 314 516 hsl 128 15 0 1 0 0 empty empty empty -2 -8 0 10 -262144
-1 -1 0 1;
#X obj 191 503 outlet~ GAIN;
#X obj 197 482 *~;
#X obj 367 449 sel 1;
#X msg 430 431 1;
#X msg 499 430 0;
#X obj 478 498 outlet;
#X obj 472 464 tgl 15 0 empty empty empty 17 7 0 10 -262144 -1 -1 0
1;
#X msg 203 423 0.5 200;
#X obj 360 353 delay 500;
#X msg 271 424 1 1000;
#X connect 0 0 2 0;
#X connect 2 0 4 0;
#X connect 3 0 2 0;
#X connect 4 0 5 0;
#X connect 4 0 1 0;
#X connect 5 0 9 0;
#X connect 6 0 7 0;
#X connect 7 0 10 0;
#X connect 8 0 0 0;
#X connect 9 0 6 0;
#X connect 10 0 25 0;
#X connect 10 0 14 0;
#X connect 10 1 15 0;
#X connect 11 0 19 0;
#X connect 11 0 19 1;
#X connect 11 0 16 0;
#X connect 12 0 8 0;
#X connect 13 0 26 0;
#X connect 14 0 13 0;
#X connect 14 0 21 0;
#X connect 15 0 26 0;
#X connect 16 0 17 0;
#X connect 19 0 18 0;
#X connect 21 0 24 0;
#X connect 22 0 24 0;
#X connect 24 0 23 0;
#X connect 25 0 11 0;
#X connect 26 0 27 0;
#X connect 26 0 22 0;
#X connect 27 0 11 0;
#X restore 115 113 pd voice_detector;
#X obj 42 -25 adc~;
#X obj 234 345 *~;
#X obj 273 345 *~;
#X obj 34 103 s~ vox;
#X obj 270 265 catch~ SynthL;
#X obj 359 266 catch~ SynthR;
#X obj 274 303 vols~;
#X obj 485 268 hsl 128 15 0 127 0 0 empty empty empty -2 -8 0 10 -262144
-1 -1 9000 1;
#X floatatom 457 289 5 0 0 0 - - -;
#X obj 75 9 throw~ MainLR;
#X obj 357 479 catch~ MainR;
#X obj 293 533 dac~;
#X obj 186 480 catch~ MainLR;
#X obj 899 347 unpack f f;
#X obj 902 405 pack f f f;
#X obj 901 428 send g-vox;
#X floatatom 835 413 5 0 0 0 - - -;
#X obj 835 356 bng 15 250 50 0 empty empty empty 17 7 0 10 -262144
-1 -1;
#X obj 455 217 loadbang;
#X obj 276 479 catch~ MainL;
#X obj 219 435 throw~ MainL;
#X obj 341 436 throw~ MainR;
#X obj 903 379 poly 5 1;
#X obj 752 -16 essentiaAnalysis;
#X floatatom 633 7 5 0 0 0 - - -;
#X floatatom 737 26 5 0 0 0 - - -;
#X floatatom 840 26 8 0 0 0 OnsetRate - -;
#X obj 752 -43 r~ vox;
#X obj 976 225 s loudness;
#N canvas 615 202 760 525 voice_reverb 0;
#X obj 213 -2712 freeverb~;
#X obj 112 -2667 throw~ MainR;
#X obj 193 -2667 throw~ MainL;
#X obj 166 -2926 loadbang;
#X obj -15 -2867 inlet~ VOX;
#X obj 278 -2959 inlet Loudness;
#X obj 276 -2892 hsl 128 15 0 1 0 0 empty empty empty -2 -8 0 10 -262144
-1 -1 0 1;
#X obj 131 -2769 *~;
#X obj 229 -2832 line~;
#X obj 225 -2803 *~;
#X msg 246 -2857 \$1 40;
#X msg 212 -2763 roomsize 0.9 \, dry 1 \, wet 1 \, damping 0.25;
#X connect 0 0 1 0;
#X connect 0 1 2 0;
#X connect 3 0 11 0;
#X connect 4 0 7 0;
#X connect 4 0 1 0;
#X connect 4 0 2 0;
#X connect 5 0 6 0;
#X connect 5 0 10 0;
#X connect 7 0 0 0;
#X connect 7 0 0 1;
#X connect 8 0 9 0;
#X connect 8 0 9 1;
#X connect 9 0 7 1;
#X connect 10 0 8 0;
#X connect 11 0 0 0;
#X restore 259 113 pd voice_reverb;
#X obj 228 158 tgl 15 0 empty empty empty 17 7 0 10 -262144 -1 -1 0
1;
#X obj 900 313 pack f f;
#X msg 456 243 90;
#X obj 964 166 f;
#N canvas 199 143 1017 568 Notes_Generator 0;
#X obj 140 262 tonalize;
#X obj 147 171 +;
#X obj 226 124 i;
#X floatatom 225 147 5 0 0 0 - - -;
#X obj 225 98 * 24;
#X obj 96 144 + 12;
#X obj 140 288 change;
#X obj 365 69 inlet Loudness;
#X obj 581 52 inlet OnsetRate;
#X obj 9 40 inlet BaseMidiNote;
#X obj 137 346 outlet MidiNoteNumber;
#X floatatom 157 319 5 0 0 0 - - -;
#X obj 499 408 metro;
#X obj 490 346 tgl 15 0 empty empty empty 17 7 0 10 -262144 -1 -1 0
1;
#X obj 586 125 sel 0;
#X obj 212 188 random 12;
#X obj 143 224 +;
#X obj 95 120 i;
#X obj 174 20 r \$0-gennote;
#X obj 172 44 bng 15 250 50 0 empty empty empty 17 7 0 10 -262144 -1
-1;
#X obj 109 77 t b b;
#X obj 729 507 s \$0-gennote;
#X obj 500 442 bng 15 250 50 0 empty empty empty 17 7 0 10 -262144
-1 -1;
#X floatatom 654 101 5 0 0 0 - - -;
#X obj 583 90 change;
#X obj 501 233 bng 15 250 50 0 empty empty empty 17 7 0 10 -262144
-1 -1;
#X obj 188 214 + 6;
#X obj 743 55 inlet Onsets;
#X obj 740 81 bng 15 250 50 0 empty empty empty 17 7 0 10 -262144 -1
-1;
#X obj 599 415 + 600;
#X floatatom 598 439 5 0 0 0 - - -;
#X msg 490 316 1;
#X msg 532 313 0;
#X obj 636 268 bng 15 250 50 0 empty empty empty 17 7 0 10 -262144
-1 -1;
#X text 638 210 Clear!;
#X obj 640 241 Uzi 6;
#X obj 641 177 delay 1000;
#X obj 367 144 * 24;
#X floatatom 288 170 5 0 0 0 - - -;
#X obj 362 168 + 6;
#X obj 599 388 random 1000;
#X connect 0 0 6 0;
#X connect 1 0 16 0;
#X connect 2 0 3 0;
#X connect 3 0 1 1;
#X connect 4 0 2 0;
#X connect 5 0 1 0;
#X connect 6 0 10 0;
#X connect 6 0 11 0;
#X connect 7 0 0 1;
#X connect 7 0 4 0;
#X connect 8 0 24 0;
#X connect 9 0 17 1;
#X connect 12 0 22 0;
#X connect 13 0 12 0;
#X connect 14 0 25 0;
#X connect 14 1 32 0;
#X connect 15 0 26 0;
#X connect 16 0 0 0;
#X connect 17 0 5 0;
#X connect 18 0 19 0;
#X connect 19 0 20 0;
#X connect 20 0 17 0;
#X connect 20 1 15 0;
#X connect 22 0 21 0;
#X connect 22 0 40 0;
#X connect 24 0 23 0;
#X connect 24 0 14 0;
#X connect 24 0 0 2;
#X connect 24 0 37 0;
#X connect 25 0 31 0;
#X connect 25 0 36 0;
#X connect 26 0 16 1;
#X connect 27 0 28 0;
#X connect 28 0 21 0;
#X connect 29 0 30 0;
#X connect 30 0 12 1;
#X connect 31 0 13 0;
#X connect 32 0 13 0;
#X connect 33 0 21 0;
#X connect 35 0 33 0;
#X connect 36 0 35 0;
#X connect 37 0 39 0;
#X connect 38 0 15 1;
#X connect 39 0 38 0;
#X connect 40 0 29 0;
#X restore 703 159 pd Notes_Generator;
#X obj 630 52 i;
#X floatatom 629 82 5 0 0 0 - - -;
#X obj 321 15 s RESET;
#X obj 308 -34 bng 31 250 50 0 empty empty empty 17 7 0 10 -4034 -1
-1;
#X obj 910 28 bng 15 250 50 0 empty empty empty 17 7 0 10 -262144 -1
-1;
#X msg 577 16 reset;
#X obj 559 -10 r RESET;
#X obj 1069 455 vox 5;
#X obj 261 82 r~ vox;
#X obj 356 85 r loudness;
#X obj 900 455 vox 1;
#X obj 943 455 vox 2;
#X obj 985 455 vox 3;
#X obj 1028 455 vox 4;
#X obj 631 28 autoscale 36 64;
#X obj 114 352 playwav;
#X obj 150 399 vols~;
#X obj 563 372 hsl 128 15 0 127 0 0 empty empty empty -2 -8 0 10 -262144
-1 -1 9000 1;
#X floatatom 535 393 5 0 0 0 - - -;
#X obj 533 321 loadbang;
#X msg 534 347 90;
#X connect 1 0 0 0;
#X connect 2 0 4 0;
#X connect 2 0 5 0;
#X connect 2 1 33 0;
#X connect 3 0 2 0;
#X connect 3 0 6 0;
#X connect 3 0 12 0;
#X connect 4 0 23 0;
#X connect 5 0 24 0;
#X connect 7 0 9 0;
#X connect 8 0 9 1;
#X connect 9 0 4 1;
#X connect 9 1 5 1;
#X connect 10 0 9 2;
#X connect 10 0 11 0;
#X connect 13 0 14 1;
#X connect 15 0 14 0;
#X connect 15 0 14 1;
#X connect 16 0 25 0;
#X connect 16 1 25 1;
#X connect 17 0 18 0;
#X connect 21 0 35 0;
#X connect 22 0 14 0;
#X connect 25 0 17 0;
#X connect 25 0 19 0;
#X connect 25 0 20 0;
#X connect 25 1 17 1;
#X connect 25 2 17 2;
#X connect 26 0 27 0;
#X connect 26 1 28 0;
#X connect 26 2 29 0;
#X connect 26 3 42 0;
#X connect 27 0 52 0;
#X connect 28 0 36 0;
#X connect 28 0 37 1;
#X connect 29 0 37 2;
#X connect 30 0 26 0;
#X connect 34 0 16 0;
#X connect 35 0 10 0;
#X connect 36 0 31 0;
#X connect 36 0 34 1;
#X connect 37 0 34 0;
#X connect 38 0 39 0;
#X connect 39 0 37 0;
#X connect 41 0 40 0;
#X connect 42 0 37 3;
#X connect 43 0 52 0;
#X connect 44 0 43 0;
#X connect 46 0 32 0;
#X connect 47 0 32 1;
#X connect 52 0 38 0;
#X connect 53 0 54 0;
#X connect 53 1 54 1;
#X connect 54 0 23 0;
#X connect 54 1 24 0;
#X connect 55 0 54 2;
#X connect 55 0 56 0;
#X connect 57 0 58 0;
#X connect 58 0 55 0;
