#N canvas 38 48 541 407 10;
#X obj 143 27 inlet;
#X obj 141 69 t f f;
#X obj 140 188 i;
#X obj 140 151 / 12;
#X obj 139 244 * 12;
#X obj 160 286 +;
#X obj 158 325 outlet tonalized;
#X obj 223 244 zl nth;
#X obj 225 106 % 12;
#X obj 225 136 t b f;
#X obj 140 48 i;
#X floatatom 252 278 5 0 0 0 - - -;
#X msg 298 162 0 3 6 9 3 6 9 12 6 9 12;
#X msg 297 135 0 2 2 3 3 4 4 7 8 8 10 10;
#X msg 300 190 0 0 2 2 4 5 7 7 9 9 9;
#X connect 0 0 10 0;
#X connect 1 0 3 0;
#X connect 1 1 8 0;
#X connect 2 0 4 0;
#X connect 3 0 2 0;
#X connect 4 0 5 0;
#X connect 5 0 6 0;
#X connect 7 0 5 1;
#X connect 7 0 11 0;
#X connect 8 0 9 0;
#X connect 9 0 7 0;
#X connect 9 1 7 1;
#X connect 10 0 1 0;
#X connect 12 0 7 0;
#X connect 13 0 7 0;
#X connect 14 0 7 0;
