#N canvas 313 139 764 574 10;
#X obj 101 262 >~ 0;
#X obj 112 287 *~;
#X obj 157 50 route \$1;
#X obj 80 542 throw~ SynthL;
#X obj 220 542 throw~ SynthR;
#X obj 157 178 line~;
#X obj 156 25 r g-vox;
#X obj 287 78 bng 15 250 50 0 empty empty empty 17 7 0 10 -262144 -1
-1;
#X obj 158 79 unpack f f;
#X obj 252 324 osc~ 1;
#X obj 393 217 random 100;
#X obj 390 239 / 45;
#X obj 139 386 *~;
#X obj 146 238 osc~ 82;
#X obj 145 348 lop~ 800;
#X obj 119 314 overdrive~ 2;
#X obj 156 120 mtof;
#X floatatom 222 114 5 0 0 0 - - -;
#X obj 358 326 line 0 20;
#X obj 293 194 + 0.2;
#X obj 270 148 * 2;
#X msg 363 297 \$1 100;
#X obj 507 396 phasor~;
#X obj 516 333 line~;
#X obj 516 358 *~ -1;
#X obj 398 447 osc~;
#X obj 409 474 *~;
#X obj 516 238 + 0.2;
#X obj 294 378 *~ 0.5;
#X obj 506 424 *~;
#X msg 157 157 \$1 200;
#X floatatom 574 278 5 0 0 0 - - -;
#X obj 407 500 *~ 1;
#X obj 514 459 lop~ 1000;
#X obj 514 264 * 10;
#X msg 521 305 \$1 2000;
#X connect 0 0 1 0;
#X connect 1 0 15 0;
#X connect 2 0 8 0;
#X connect 5 0 13 0;
#X connect 5 0 28 0;
#X connect 6 0 2 0;
#X connect 7 0 10 0;
#X connect 8 0 16 0;
#X connect 8 1 17 0;
#X connect 9 0 12 1;
#X connect 10 0 11 0;
#X connect 11 0 21 0;
#X connect 12 0 3 0;
#X connect 12 0 4 0;
#X connect 13 0 0 0;
#X connect 13 0 1 1;
#X connect 14 0 12 0;
#X connect 15 0 14 0;
#X connect 15 0 12 0;
#X connect 16 0 30 0;
#X connect 17 0 20 0;
#X connect 17 0 27 0;
#X connect 18 0 9 0;
#X connect 19 0 21 0;
#X connect 20 0 19 0;
#X connect 21 0 18 0;
#X connect 22 0 29 0;
#X connect 22 0 29 1;
#X connect 23 0 24 0;
#X connect 24 0 22 0;
#X connect 25 0 26 0;
#X connect 26 0 32 0;
#X connect 27 0 34 0;
#X connect 28 0 25 0;
#X connect 29 0 33 0;
#X connect 30 0 5 0;
#X connect 32 0 3 0;
#X connect 32 0 4 0;
#X connect 33 0 26 1;
#X connect 34 0 35 0;
#X connect 34 0 31 0;
#X connect 35 0 23 0;
