#N canvas 430 194 512 385 10;
#X obj 101 212 >~ 0;
#X obj 112 237 *~;
#X obj 157 50 route \$1;
#X obj 78 357 throw~ SynthL;
#X obj 177 338 throw~ SynthR;
#X obj 157 128 line~;
#X obj 156 25 r g-vox;
#X obj 287 78 bng 15 250 50 0 empty empty empty 17 7 0 10 -262144 -1
-1;
#X obj 366 339 hsl 128 15 -45 45 0 0 empty empty empty -2 -8 0 10 -262144
-1 -1 6629 1;
#X msg 157 107 \$1 100;
#X msg 363 247 \$1 2000;
#X obj 158 79 unpack f f;
#X obj 157 153 *~ 1;
#X floatatom 106 120 5 0 0 0 - - -;
#X obj 252 274 osc~ 1;
#X obj 365 185 random 100;
#X obj 362 207 / 45;
#X obj 137 311 *~;
#X obj 358 276 line 0 200;
#X obj 146 188 osc~ 82;
#X obj 145 283 lop~ 800;
#X obj 200 228 hsl 128 15 0 800 0 0 empty empty empty -2 -8 0 10 -262144
-1 -1 3900 1;
#X obj 119 264 overdrive~ 2;
#X connect 0 0 1 0;
#X connect 1 0 22 0;
#X connect 2 0 7 0;
#X connect 2 0 11 0;
#X connect 5 0 12 0;
#X connect 6 0 2 0;
#X connect 7 0 15 0;
#X connect 9 0 5 0;
#X connect 10 0 18 0;
#X connect 11 0 9 0;
#X connect 11 0 13 0;
#X connect 12 0 19 0;
#X connect 14 0 17 1;
#X connect 15 0 16 0;
#X connect 16 0 10 0;
#X connect 17 0 3 0;
#X connect 17 0 4 0;
#X connect 18 0 8 0;
#X connect 18 0 14 0;
#X connect 19 0 0 0;
#X connect 19 0 1 1;
#X connect 20 0 17 0;
#X connect 21 0 20 1;
#X connect 22 0 17 0;
#X connect 22 0 20 0;
